{"asset":{"version":"2.0","generator":"Blockbench 3.9.2 glTF exporter"},"scenes":[{"nodes":[0,1,2,3,4,5,6,7,8,9,10,11],"name":"blockbench_export"}],"scene":0,"nodes":[{"rotation":[0.47771441710826085,0.5213338044735968,0.47771441710826085,0.5213338044735969],"name":"aa98a950-a05a-e1a4-6a08-87a9439caf97","mesh":0},{"rotation":[0,-0.7071067811865475,0,0.7071067811865476],"name":"c4214b1d-3af2-f034-aca9-a2c1cb04b706","mesh":1},{"rotation":[0,-0.7071067811865475,0,0.7071067811865476],"name":"5e1e08ef-9e13-0d3c-969f-77c95c21991e","mesh":2},{"rotation":[0,-0.3420201433256687,0,0.9396926207859084],"name":"8e11fc6a-2a9b-c510-802d-7dba97dc92e6","mesh":3},{"rotation":[0,0.3420201433256687,0,0.9396926207859084],"name":"e8a8c8c2-063e-5656-1cfc-c0ff0eff87c4","mesh":4},{"rotation":[0,-0.7071067811865475,0,0.7071067811865476],"name":"e8821589-73a4-1183-24ca-423f8e16e98c","mesh":5},{"rotation":[0,-0.7071067811865475,0,0.7071067811865476],"name":"da9332b8-fcd3-b9a3-93df-3e98a0545f85","mesh":6},{"rotation":[0,0.3420201433256687,0,0.9396926207859084],"name":"2445ab58-6f03-2560-309a-e94ce6f22fa4","mesh":7},{"rotation":[0,-0.3420201433256687,0,0.9396926207859084],"name":"c28ef99a-cfa8-b77e-7b3a-16abd78105ff","mesh":8},{"rotation":[0,-0.7071067811865475,0,0.7071067811865476],"name":"48367b46-2975-ce89-eee0-241475c1dbac","mesh":9},{"rotation":[0,-0.3420201433256687,0,0.9396926207859084],"name":"3cbc6d07-afc2-8106-9162-0c8fea463f30","mesh":10},{"rotation":[0,0.3420201433256687,0,0.9396926207859084],"name":"8e0e0d6f-9855-2d38-862f-d24a12e180e7","mesh":11}],"bufferViews":[{"buffer":0,"byteOffset":0,"byteLength":432,"target":34962,"byteStride":12},{"buffer":0,"byteOffset":432,"byteLength":432,"target":34962,"byteStride":12},{"buffer":0,"byteOffset":864,"byteLength":288,"target":34962,"byteStride":8},{"buffer":0,"byteOffset":1152,"byteLength":12,"target":34963},{"buffer":0,"byteOffset":1164,"byteLength":12,"target":34963},{"buffer":0,"byteOffset":1176,"byteLength":12,"target":34963},{"buffer":0,"byteOffset":1188,"byteLength":12,"target":34963},{"buffer":0,"byteOffset":1200,"byteLength":12,"target":34963},{"buffer":0,"byteOffset":1212,"byteLength":12,"target":34963},{"buffer":0,"byteOffset":1224,"byteLength":432,"target":34962,"byteStride":12},{"buffer":0,"byteOffset":1656,"byteLength":432,"target":34962,"byteStride":12},{"buffer":0,"byteOffset":2088,"byteLength":288,"target":34962,"byteStride":8},{"buffer":0,"byteOffset":2376,"byteLength":12,"target":34963},{"buffer":0,"byteOffset":2388,"byteLength":12,"target":34963},{"buffer":0,"byteOffset":2400,"byteLength":12,"target":34963},{"buffer":0,"byteOffset":2412,"byteLength":12,"target":34963},{"buffer":0,"byteOffset":2424,"byteLength":12,"target":34963},{"buffer":0,"byteOffset":2436,"byteLength":12,"target":34963},{"buffer":0,"byteOffset":2448,"byteLength":432,"target":34962,"byteStride":12},{"buffer":0,"byteOffset":2880,"byteLength":432,"target":34962,"byteStride":12},{"buffer":0,"byteOffset":3312,"byteLength":288,"target":34962,"byteStride":8},{"buffer":0,"byteOffset":3600,"byteLength":432,"target":34962,"byteStride":12},{"buffer":0,"byteOffset":4032,"byteLength":432,"target":34962,"byteStride":12},{"buffer":0,"byteOffset":4464,"byteLength":288,"target":34962,"byteStride":8},{"buffer":0,"byteOffset":4752,"byteLength":432,"target":34962,"byteStride":12},{"buffer":0,"byteOffset":5184,"byteLength":432,"target":34962,"byteStride":12},{"buffer":0,"byteOffset":5616,"byteLength":288,"target":34962,"byteStride":8},{"buffer":0,"byteOffset":5904,"byteLength":432,"target":34962,"byteStride":12},{"buffer":0,"byteOffset":6336,"byteLength":432,"target":34962,"byteStride":12},{"buffer":0,"byteOffset":6768,"byteLength":288,"target":34962,"byteStride":8},{"buffer":0,"byteOffset":7056,"byteLength":432,"target":34962,"byteStride":12},{"buffer":0,"byteOffset":7488,"byteLength":432,"target":34962,"byteStride":12},{"buffer":0,"byteOffset":7920,"byteLength":288,"target":34962,"byteStride":8},{"buffer":0,"byteOffset":8208,"byteLength":432,"target":34962,"byteStride":12},{"buffer":0,"byteOffset":8640,"byteLength":432,"target":34962,"byteStride":12},{"buffer":0,"byteOffset":9072,"byteLength":288,"target":34962,"byteStride":8},{"buffer":0,"byteOffset":9360,"byteLength":432,"target":34962,"byteStride":12},{"buffer":0,"byteOffset":9792,"byteLength":432,"target":34962,"byteStride":12},{"buffer":0,"byteOffset":10224,"byteLength":288,"target":34962,"byteStride":8},{"buffer":0,"byteOffset":10512,"byteLength":432,"target":34962,"byteStride":12},{"buffer":0,"byteOffset":10944,"byteLength":432,"target":34962,"byteStride":12},{"buffer":0,"byteOffset":11376,"byteLength":288,"target":34962,"byteStride":8},{"buffer":0,"byteOffset":11664,"byteLength":432,"target":34962,"byteStride":12},{"buffer":0,"byteOffset":12096,"byteLength":432,"target":34962,"byteStride":12},{"buffer":0,"byteOffset":12528,"byteLength":288,"target":34962,"byteStride":8},{"buffer":0,"byteOffset":12816,"byteLength":432,"target":34962,"byteStride":12},{"buffer":0,"byteOffset":13248,"byteLength":432,"target":34962,"byteStride":12},{"buffer":0,"byteOffset":13680,"byteLength":288,"target":34962,"byteStride":8}],"buffers":[{"byteLength":13968,"uri":"data:application/octet-stream;base64,"}],"accessors":[{"bufferView":0,"componentType":5126,"count":36,"max":[0.16875000298023224,0.06937500089406967,0.10000000149011612],"min":[0.07500000298023224,0.06312499940395355,0.05000000074505806],"type":"VEC3"},{"bufferView":1,"componentType":5126,"count":36,"max":[1,1,1],"min":[-1,-1,-1],"type":"VEC3"},{"bufferView":2,"componentType":5126,"count":36,"max":[0.012500000186264515,1],"min":[0,0.949999988079071],"type":"VEC2"},{"bufferView":3,"componentType":5123,"count":6,"max":[5],"min":[0],"type":"SCALAR"},{"bufferView":4,"componentType":5123,"count":6,"max":[11],"min":[6],"type":"SCALAR"},{"bufferView":5,"componentType":5123,"count":6,"max":[17],"min":[12],"type":"SCALAR"},{"bufferView":6,"componentType":5123,"count":6,"max":[23],"min":[18],"type":"SCALAR"},{"bufferView":7,"componentType":5123,"count":6,"max":[29],"min":[24],"type":"SCALAR"},{"bufferView":8,"componentType":5123,"count":6,"max":[35],"min":[30],"type":"SCALAR"},{"bufferView":9,"componentType":5126,"count":36,"max":[0.11249999701976776,0.08749999850988388,-0.05000000074505806],"min":[0.0625,0.08124999701976776,-0.10000000149011612],"type":"VEC3"},{"bufferView":10,"componentType":5126,"count":36,"max":[1,1,1],"min":[-1,-1,-1],"type":"VEC3"},{"bufferView":11,"componentType":5126,"count":36,"max":[0.012500000186264515,1],"min":[0,0.949999988079071],"type":"VEC2"},{"bufferView":12,"componentType":5123,"count":6,"max":[5],"min":[0],"type":"SCALAR"},{"bufferView":13,"componentType":5123,"count":6,"max":[11],"min":[6],"type":"SCALAR"},{"bufferView":14,"componentType":5123,"count":6,"max":[17],"min":[12],"type":"SCALAR"},{"bufferView":15,"componentType":5123,"count":6,"max":[23],"min":[18],"type":"SCALAR"},{"bufferView":16,"componentType":5123,"count":6,"max":[29],"min":[24],"type":"SCALAR"},{"bufferView":17,"componentType":5123,"count":6,"max":[35],"min":[30],"type":"SCALAR"},{"bufferView":18,"componentType":5126,"count":36,"max":[0.07500000298023224,0.08124999701976776,-0.06875000149011612],"min":[0.0625,0.03125,-0.08124999701976776],"type":"VEC3"},{"bufferView":19,"componentType":5126,"count":36,"max":[1,1,1],"min":[-1,-1,-1],"type":"VEC3"},{"bufferView":20,"componentType":5126,"count":36,"max":[0.012500000186264515,1],"min":[0,0.949999988079071],"type":"VEC2"},{"bufferView":21,"componentType":5126,"count":36,"max":[0.13750000298023224,0.03125,0.00937500037252903],"min":[0.13124999403953552,0.02500000037252903,0.0031250000465661287],"type":"VEC3"},{"bufferView":22,"componentType":5126,"count":36,"max":[1,1,1],"min":[-1,-1,-1],"type":"VEC3"},{"bufferView":23,"componentType":5126,"count":36,"max":[0.0062500000931322575,1],"min":[0,0.9937499761581421],"type":"VEC2"},{"bufferView":24,"componentType":5126,"count":36,"max":[0.05000000074505806,0.03125,0.10312499850988388],"min":[0.04374999925494194,0.02500000037252903,0.09687499701976776],"type":"VEC3"},{"bufferView":25,"componentType":5126,"count":36,"max":[1,1,1],"min":[-1,-1,-1],"type":"VEC3"},{"bufferView":26,"componentType":5126,"count":36,"max":[0.0062500000931322575,1],"min":[0,0.9937499761581421],"type":"VEC2"},{"bufferView":27,"componentType":5126,"count":36,"max":[0.03750000149011612,0.03125,-0.07187499850988388],"min":[0.03125,0.02500000037252903,-0.078125],"type":"VEC3"},{"bufferView":28,"componentType":5126,"count":36,"max":[1,1,1],"min":[-1,-1,-1],"type":"VEC3"},{"bufferView":29,"componentType":5126,"count":36,"max":[0.0062500000931322575,1],"min":[0,0.9937499761581421],"type":"VEC2"},{"bufferView":30,"componentType":5126,"count":36,"max":[0.10625000298023224,0.03125,-0.07187499850988388],"min":[0.10000000149011612,0.02500000037252903,-0.078125],"type":"VEC3"},{"bufferView":31,"componentType":5126,"count":36,"max":[1,1,1],"min":[-1,-1,-1],"type":"VEC3"},{"bufferView":32,"componentType":5126,"count":36,"max":[0.0062500000931322575,1],"min":[0,0.9937499761581421],"type":"VEC2"},{"bufferView":33,"componentType":5126,"count":36,"max":[0.05000000074505806,0.04374999925494194,0.10625000298023224],"min":[-0.02500000037252903,0.03125,0.09375],"type":"VEC3"},{"bufferView":34,"componentType":5126,"count":36,"max":[1,1,1],"min":[-1,-1,-1],"type":"VEC3"},{"bufferView":35,"componentType":5126,"count":36,"max":[0.07500000298023224,1],"min":[0,0.987500011920929],"type":"VEC2"},{"bufferView":36,"componentType":5126,"count":36,"max":[0.06875000149011612,0.03125,0.00937500037252903],"min":[0.0625,0.02500000037252903,0.0031250000465661287],"type":"VEC3"},{"bufferView":37,"componentType":5126,"count":36,"max":[1,1,1],"min":[-1,-1,-1],"type":"VEC3"},{"bufferView":38,"componentType":5126,"count":36,"max":[0.0062500000931322575,1],"min":[0,0.9937499761581421],"type":"VEC2"},{"bufferView":39,"componentType":5126,"count":36,"max":[0.10625000298023224,0.04374999925494194,-0.06875000149011612],"min":[0.03125,0.03125,-0.08124999701976776],"type":"VEC3"},{"bufferView":40,"componentType":5126,"count":36,"max":[1,1,1],"min":[-1,-1,-1],"type":"VEC3"},{"bufferView":41,"componentType":5126,"count":36,"max":[0.07500000298023224,1],"min":[0,0.987500011920929],"type":"VEC2"},{"bufferView":42,"componentType":5126,"count":36,"max":[0.13750000298023224,0.04374999925494194,0.012500000186264515],"min":[0.0625,0.03125,0],"type":"VEC3"},{"bufferView":43,"componentType":5126,"count":36,"max":[1,1,1],"min":[-1,-1,-1],"type":"VEC3"},{"bufferView":44,"componentType":5126,"count":36,"max":[0.07500000298023224,1],"min":[0,0.987500011920929],"type":"VEC2"},{"bufferView":45,"componentType":5126,"count":36,"max":[-0.01875000074505806,0.03125,0.10312499850988388],"min":[-0.02500000037252903,0.02500000037252903,0.09687499701976776],"type":"VEC3"},{"bufferView":46,"componentType":5126,"count":36,"max":[1,1,1],"min":[-1,-1,-1],"type":"VEC3"},{"bufferView":47,"componentType":5126,"count":36,"max":[0.0062500000931322575,1],"min":[0,0.9937499761581421],"type":"VEC2"}],"materials":[{"pbrMetallicRoughness":{"metallicFactor":0,"roughnessFactor":1,"baseColorTexture":{"index":0}},"alphaMode":"MASK","alphaCutoff":0.05,"doubleSided":true},{"pbrMetallicRoughness":{"metallicFactor":0,"roughnessFactor":1,"baseColorTexture":{"index":1}},"alphaMode":"MASK","alphaCutoff":0.05,"doubleSided":true},{"pbrMetallicRoughness":{"metallicFactor":0,"roughnessFactor":1,"baseColorTexture":{"index":2}},"alphaMode":"MASK","alphaCutoff":0.05,"doubleSided":true}],"textures":[{"sampler":0,"source":0,"name":"Chair-Blue"},{"sampler":1,"source":1,"name":"Silver"},{"sampler":2,"source":2,"name":"Plastic-Black"}],"samplers":[{"magFilter":9728,"minFilter":9728,"wrapS":33071,"wrapT":33071},{"magFilter":9728,"minFilter":9728,"wrapS":33071,"wrapT":33071},{"magFilter":9728,"minFilter":9728,"wrapS":33071,"wrapT":33071}],"images":[{"mimeType":"image/png","uri":"data:image/png;base64,"},{"mimeType":"image/png","uri":"data:image/png;base64,"},{"mimeType":"image/png","uri":"data:image/png;base64,"}],"meshes":[{"primitives":[{"mode":4,"attributes":{"POSITION":0,"NORMAL":1,"TEXCOORD_0":2},"indices":3,"material":0},{"mode":4,"attributes":{"POSITION":0,"NORMAL":1,"TEXCOORD_0":2},"indices":4,"material":1},{"mode":4,"attributes":{"POSITION":0,"NORMAL":1,"TEXCOORD_0":2},"indices":5,"material":2},{"mode":4,"attributes":{"POSITION":0,"NORMAL":1,"TEXCOORD_0":2},"indices":6,"material":0},{"mode":4,"attributes":{"POSITION":0,"NORMAL":1,"TEXCOORD_0":2},"indices":7,"material":0},{"mode":4,"attributes":{"POSITION":0,"NORMAL":1,"TEXCOORD_0":2},"indices":8,"material":0}]},{"primitives":[{"mode":4,"attributes":{"POSITION":9,"NORMAL":10,"TEXCOORD_0":11},"indices":12,"material":0},{"mode":4,"attributes":{"POSITION":9,"NORMAL":10,"TEXCOORD_0":11},"indices":13,"material":1},{"mode":4,"attributes":{"POSITION":9,"NORMAL":10,"TEXCOORD_0":11},"indices":14,"material":2},{"mode":4,"attributes":{"POSITION":9,"NORMAL":10,"TEXCOORD_0":11},"indices":15,"material":0},{"mode":4,"attributes":{"POSITION":9,"NORMAL":10,"TEXCOORD_0":11},"indices":16,"material":0},{"mode":4,"attributes":{"POSITION":9,"NORMAL":10,"TEXCOORD_0":11},"indices":17,"material":0}]},{"primitives":[{"mode":4,"attributes":{"POSITION":18,"NORMAL":19,"TEXCOORD_0":20},"material":1}]},{"primitives":[{"mode":4,"attributes":{"POSITION":21,"NORMAL":22,"TEXCOORD_0":23},"material":1}]},{"primitives":[{"mode":4,"attributes":{"POSITION":24,"NORMAL":25,"TEXCOORD_0":26},"material":1}]},{"primitives":[{"mode":4,"attributes":{"POSITION":27,"NORMAL":28,"TEXCOORD_0":29},"material":1}]},{"primitives":[{"mode":4,"attributes":{"POSITION":30,"NORMAL":31,"TEXCOORD_0":32},"material":1}]},{"primitives":[{"mode":4,"attributes":{"POSITION":33,"NORMAL":34,"TEXCOORD_0":35},"material":2}]},{"primitives":[{"mode":4,"attributes":{"POSITION":36,"NORMAL":37,"TEXCOORD_0":38},"material":1}]},{"primitives":[{"mode":4,"attributes":{"POSITION":39,"NORMAL":40,"TEXCOORD_0":41},"material":2}]},{"primitives":[{"mode":4,"attributes":{"POSITION":42,"NORMAL":43,"TEXCOORD_0":44},"material":2}]},{"primitives":[{"mode":4,"attributes":{"POSITION":45,"NORMAL":46,"TEXCOORD_0":47},"material":1}]}]}